<svg width="45" height="46" viewBox="0 0 45 46" fill="none" xmlns="http://www.w3.org/2000/svg">
<circle cx="27.5" cy="23.5" r="17.5" fill="black"/>
<path d="M19.1006 17.9005C19.0078 17.8991 18.9157 17.9163 18.8297 17.9509C18.7436 17.9855 18.6652 18.0368 18.5992 18.1019C18.5331 18.1671 18.4807 18.2447 18.4449 18.3303C18.4091 18.4159 18.3906 18.5077 18.3906 18.6005C18.3906 18.6932 18.4091 18.7851 18.4449 18.8707C18.4807 18.9562 18.5331 19.0338 18.5992 19.099C18.6652 19.1641 18.7436 19.2155 18.8297 19.25C18.9157 19.2846 19.0078 19.3018 19.1006 19.3005H35.9006C35.9933 19.3018 36.0854 19.2846 36.1715 19.25C36.2576 19.2155 36.3359 19.1641 36.402 19.099C36.4681 19.0338 36.5205 18.9562 36.5563 18.8707C36.5921 18.7851 36.6106 18.6932 36.6106 18.6005C36.6106 18.5077 36.5921 18.4159 36.5563 18.3303C36.5205 18.2447 36.4681 18.1671 36.402 18.1019C36.3359 18.0368 36.2576 17.9855 36.1715 17.9509C36.0854 17.9163 35.9933 17.8991 35.9006 17.9005H19.1006ZM19.1006 22.8005C19.0078 22.7991 18.9157 22.8163 18.8297 22.8509C18.7436 22.8855 18.6652 22.9368 18.5992 23.0019C18.5331 23.0671 18.4807 23.1447 18.4449 23.2303C18.4091 23.3159 18.3906 23.4077 18.3906 23.5005C18.3906 23.5932 18.4091 23.6851 18.4449 23.7707C18.4807 23.8562 18.5331 23.9338 18.5992 23.999C18.6652 24.0641 18.7436 24.1155 18.8297 24.15C18.9157 24.1846 19.0078 24.2018 19.1006 24.2005H35.9006C35.9933 24.2018 36.0854 24.1846 36.1715 24.15C36.2576 24.1155 36.3359 24.0641 36.402 23.999C36.4681 23.9338 36.5205 23.8562 36.5563 23.7707C36.5921 23.6851 36.6106 23.5932 36.6106 23.5005C36.6106 23.4077 36.5921 23.3159 36.5563 23.2303C36.5205 23.1447 36.4681 23.0671 36.402 23.0019C36.3359 22.9368 36.2576 22.8855 36.1715 22.8509C36.0854 22.8163 35.9933 22.7991 35.9006 22.8005H19.1006ZM19.1006 27.7005C19.0078 27.6991 18.9157 27.7163 18.8297 27.7509C18.7436 27.7855 18.6652 27.8368 18.5992 27.9019C18.5331 27.9671 18.4807 28.0447 18.4449 28.1303C18.4091 28.2159 18.3906 28.3077 18.3906 28.4005C18.3906 28.4932 18.4091 28.5851 18.4449 28.6707C18.4807 28.7562 18.5331 28.8338 18.5992 28.899C18.6652 28.9641 18.7436 29.0155 18.8297 29.05C18.9157 29.0846 19.0078 29.1018 19.1006 29.1005H35.9006C35.9933 29.1018 36.0854 29.0846 36.1715 29.05C36.2576 29.0155 36.3359 28.9641 36.402 28.899C36.4681 28.8338 36.5205 28.7562 36.5563 28.6707C36.5921 28.5851 36.6106 28.4932 36.6106 28.4005C36.6106 28.3077 36.5921 28.2159 36.5563 28.1303C36.5205 28.0447 36.4681 27.9671 36.402 27.9019C36.3359 27.8368 36.2576 27.7855 36.1715 27.7509C36.0854 27.7163 35.9933 27.6991 35.9006 27.7005H19.1006Z" fill="white"/>
</svg>
